<?xml version="1.0" encoding="UTF-8" standalone="no"?>
<svg
   width="179.379"
   height="78.521"
   version="1.1"
   id="svg1"
   sodipodi:docname="logo.svg"
   inkscape:version="1.3.2 (091e20e, 2023-11-25, custom)"
   xmlns:inkscape="http://www.inkscape.org/namespaces/inkscape"
   xmlns:sodipodi="http://sodipodi.sourceforge.net/DTD/sodipodi-0.dtd"
   xmlns="http://www.w3.org/2000/svg"
   xmlns:svg="http://www.w3.org/2000/svg">
  <defs
     id="defs1" />
  <sodipodi:namedview
     id="namedview1"
     pagecolor="#505050"
     bordercolor="#ffffff"
     borderopacity="1"
     inkscape:showpageshadow="0"
     inkscape:pageopacity="0"
     inkscape:pagecheckerboard="1"
     inkscape:deskcolor="#d1d1d1"
     inkscape:zoom="3.7346695"
     inkscape:cx="89.700038"
     inkscape:cy="39.360912"
     inkscape:window-width="1718"
     inkscape:window-height="1360"
     inkscape:window-x="-7"
     inkscape:window-y="0"
     inkscape:window-maximized="0"
     inkscape:current-layer="svg1" />
  <path
     data-name="Path 2"
     d="M111.78 53.368a30.271 30.271 0 0 0 1.54-5.808 61.14 61.14 0 0 0 .981-6.229c.27-4.038-4.669-4.81-5.666.229-.684 3.2-2.52 12.175-2.52 12.175-.682 3.357 3.556 4.119 5.666-.367m-34.043-14.8h-.025c-2.691.121-3.548 2.64-4.072 5.341l-.066.334 5.721-.223.221-1.115c.295-1.51.495-3.153-.268-3.905a1.952 1.952 0 0 0-1.511-.436M63.883 3.057c.219-1.991-1.447-3.335-3.718-3.008L5.578 14.741c-2.267.308-4.191 2.109-4.412 3.909l-1.16 6.454a.738.738 0 0 0 .816.829l18.061-3.189-8.24 40.252a2.082 2.082 0 0 0 2.031 2.5l10.562.04 8.975-43.946a1.336 1.336 0 0 1 1.149-1.079l27.183-4.854Zm100.792 2.362-49.268 7.129a2.064 2.064 0 0 0-1.77 1.634c-.761 3.728-3.794 18.639-3.794 18.639a17.351 17.351 0 0 1 8.733-3.184c.03 0 .06 0 .087-.006 2.847-.132 5.009.548 6.432 2.033 3.384 3.55 1.891 10.849.907 15.665-1.538 7.565-4.691 18.49-14.671 18.662h-.093c-3.514.042-6.052-1.338-7.142-3.65a.049.049 0 0 0-.094.006c-.119.623-.321 1.855-.488 2.675a.371.371 0 0 1-.372.285l-11.58-.036a.586.586 0 0 1-.31-.125.321.321 0 0 1-.087-.295l10.208-50.004-57.742 9.25a.8.8 0 0 0-.688.625s-2.424 11.229-2.573 11.839a14.391 14.391 0 0 1 9.19-3.626c2.838-.13 4.878.4 6.178 1.623 2.229 2.107 1.874 5.808 1.238 9.145l-4.045 21.41a.367.367 0 0 1-.367.27l-12.676.015 4.083-20.043c.168-.9.533-2.366-.285-3.184a1.856 1.856 0 0 0-1.323-.461c-2.7 0-3.325 2.307-3.7 4.348l-4.946 23.718a2.851 2.851 0 0 0 2.66 3.418l74.447 3.875a22.52 22.52 0 0 0 13.944-4.521c5.457 6.3 17.025 5.971 17.109 5.971 15.068-.091 28.553-10.071 31.549-26.053.875-4.669 3.335-18.822 5.746-32a12.858 12.858 0 0 0-14.488-15.044m-74.78 44.664-17.572.573-.314 1.608v.006a16.856 16.856 0 0 0-.457 4.168A1.98 1.98 0 0 0 72.186 58a2.082 2.082 0 0 0 1.41.416h.021c2.94-.072 3.609-3.01 4.092-5.16a.451.451 0 0 1 .384-.336l10.866-.327a.411.411 0 0 1 .312.123.334.334 0 0 1 .087.3c-1.948 8.465-7.061 12.088-16.884 12.257h-.2c-5 .057-8.434-.911-10.5-2.961-2.477-2.439-3.159-6.224-1.908-12.767 1.884-9.821 4.518-17.43 19.38-18.2 4.559-.248 7.779.6 9.761 2.553 3.407 3.4 2.541 9.473 1.27 15.909a.383.383 0 0 1-.374.285m70.356-1.776a.4.4 0 0 1-.382.306l-17.575.578-.355 1.725v.009a19.486 19.486 0 0 0-.574 4.474 2.173 2.173 0 0 0 .58 1.68 1.959 1.959 0 0 0 1.4.446h.019c2.944-.076 3.692-3.227 4.238-5.536a.484.484 0 0 1 .391-.361l10.868-.331a.389.389 0 0 1 .306.136.343.343 0 0 1 .079.316c-2.184 9.079-7.535 13.46-17.356 13.628h-.2c-5 .057-8.4-.992-10.411-3.2-2.4-2.626-2.838-7.182-1.4-14.214 2.165-10.554 5.015-18.726 19.875-19.5 4.565-.251 7.754.665 9.678 2.772 3.306 3.654 2.277 10.169.828 17.071m-12.225-12.089h-.025c-2.691.119-3.616 2.823-4.215 5.723l-.077.365 5.725-.229.249-1.2c.336-1.619.582-3.384-.161-4.193a1.819 1.819 0 0 0-1.5-.472"
     fill="#7b66a2"
     id="path1"
     style="fill:#35183e;fill-opacity:1" />
</svg>
